<svg data-orbit viewBox="0 0 480 480" fill="none" preserveAspectRatio="xMidYMid meet" xmlns="http://www.w3.org/2000/svg">
  <defs>
    <linearGradient id="sogHalo" gradientUnits="userSpaceOnUse" x1="0" y1="480" x2="480" y2="0">
      <stop offset="0%" stop-color="#EC008C"/>
      <stop offset="50%" stop-color="#7F81AE"/>
      <stop offset="100%" stop-color="#00FFEB"/>
    </linearGradient>
  </defs>
  <path d="M318.8 226.1A80 76.8 -10 1 0 161.2 253.9A80 76.8 -10 1 0 318.8 226.1Z" stroke="url(#sogHalo)" stroke-width="1"/>
  <path d="M355.6 229.9A116 111.4 -5 1 0 124.4 250.1A116 111.4 -5 1 0 355.6 229.9Z" stroke="url(#sogHalo)" stroke-width="1"/>
  <path d="M392 240A152 145.9 0 1 0 88 240A152 145.9 0 1 0 392 240Z" stroke="url(#sogHalo)" stroke-width="1"/>
  <path d="M427.3 256.4A188 180.5 5 1 0 52.7 223.6A188 180.5 5 1 0 427.3 256.4Z" stroke="url(#sogHalo)" stroke-width="1"/>
  <path data-orbit-track d="M460.6 278.9A224 215 10 1 0 19.4 201.1A224 215 10 1 0 460.6 278.9Z" stroke="url(#sogHalo)" stroke-width="1"/>
</svg>
